<svg xmlns="http://www.w3.org/2000/svg" viewBox="0 0 600 600" width="600" height="600">
  <rect width="600" height="600" fill="#ffffff" rx="12"/>
  <!-- Large pizza -->
  <circle cx="300" cy="280" r="220" fill="#f5e6c8" stroke="#e0c9a0" stroke-width="6"/>
  <circle cx="300" cy="280" r="195" fill="#e8412e" opacity="0.8"/>
  <circle cx="300" cy="280" r="188" fill="#d4a24e" opacity="0.25"/>
  <!-- cheese -->
  <circle cx="240" cy="230" r="28" fill="#ffeaa7" opacity="0.9"/>
  <circle cx="340" cy="210" r="24" fill="#ffeaa7" opacity="0.85"/>
  <circle cx="290" cy="310" r="30" fill="#ffeaa7" opacity="0.9"/>
  <circle cx="370" cy="300" r="22" fill="#ffeaa7" opacity="0.8"/>
  <circle cx="250" cy="340" r="26" fill="#ffeaa7" opacity="0.85"/>
  <circle cx="330" cy="360" r="20" fill="#ffeaa7" opacity="0.8"/>
  <!-- pepperoni -->
  <circle cx="220" cy="260" r="20" fill="#c0392b" opacity="0.9"/>
  <circle cx="320" cy="245" r="18" fill="#c0392b" opacity="0.85"/>
  <circle cx="360" cy="330" r="20" fill="#c0392b" opacity="0.9"/>
  <circle cx="270" cy="370" r="17" fill="#c0392b" opacity="0.85"/>
  <circle cx="300" cy="270" r="19" fill="#c0392b" opacity="0.9"/>
  <circle cx="200" cy="320" r="16" fill="#c0392b" opacity="0.85"/>
  <circle cx="380" cy="260" r="18" fill="#c0392b" opacity="0.9"/>
  <!-- herbs -->
  <circle cx="250" cy="290" r="6" fill="#27ae60" opacity="0.7"/>
  <circle cx="340" cy="275" r="5" fill="#27ae60" opacity="0.7"/>
  <circle cx="310" cy="340" r="6" fill="#27ae60" opacity="0.6"/>
  <circle cx="230" cy="350" r="5" fill="#27ae60" opacity="0.6"/>
  <text x="300" y="545" text-anchor="middle" font-family="sans-serif" font-size="22" font-weight="800" fill="#DE3635">PIZZARIA PEPPERONI</text>
  <text x="300" y="575" text-anchor="middle" font-family="sans-serif" font-size="14" fill="#999">Maringá — PR</text>
</svg>
