<svg xmlns="http://www.w3.org/2000/svg" viewBox="0 0 500 500" width="500" height="500">
  <rect width="500" height="500" fill="#ffffff" rx="8"/>
  <!-- Tomatoes -->
  <circle cx="150" cy="180" r="40" fill="#e74c3c" opacity="0.8"/>
  <circle cx="130" cy="160" r="35" fill="#c0392b" opacity="0.7"/>
  <path d="M145 140 Q150 125 155 140" stroke="#27ae60" stroke-width="3" fill="none"/>
  <path d="M125 125 Q130 110 135 125" stroke="#27ae60" stroke-width="3" fill="none"/>
  <!-- Basil leaves -->
  <ellipse cx="320" cy="150" rx="30" ry="18" fill="#27ae60" opacity="0.8" transform="rotate(-20 320 150)"/>
  <ellipse cx="345" cy="170" rx="25" ry="15" fill="#2ecc71" opacity="0.7" transform="rotate(15 345 170)"/>
  <ellipse cx="305" cy="175" rx="22" ry="13" fill="#27ae60" opacity="0.6" transform="rotate(-30 305 175)"/>
  <!-- Cheese block -->
  <path d="M100 300 L200 280 L220 350 L120 370 Z" fill="#ffeaa7" stroke="#f0d98d" stroke-width="2"/>
  <path d="M200 280 L230 260 L250 330 L220 350 Z" fill="#f5d76e" stroke="#f0d98d" stroke-width="2"/>
  <!-- Olive oil bottle -->
  <rect x="320" y="260" width="50" height="120" rx="6" fill="#c8e6c9" opacity="0.6" stroke="#a5d6a7" stroke-width="2"/>
  <rect x="335" y="240" width="20" height="25" rx="3" fill="#a5d6a7"/>
  <rect x="330" y="300" width="30" height="50" rx="4" fill="#8bc34a" opacity="0.4"/>
  <!-- Flour -->
  <ellipse cx="250" cy="420" rx="80" ry="25" fill="#f5f5f5" stroke="#e0e0e0" stroke-width="2"/>
  <text x="250" y="475" text-anchor="middle" font-family="sans-serif" font-size="16" font-weight="700" fill="#999">INGREDIENTES FRESCOS</text>
</svg>
