<svg xmlns="http://www.w3.org/2000/svg" viewBox="0 0 600 400" width="600" height="400">
  <rect width="600" height="400" fill="#ffffff" rx="8"/>
  <!-- Table -->
  <rect x="50" y="250" width="500" height="15" rx="4" fill="#8d6e63" opacity="0.6"/>
  <rect x="100" y="265" width="12" height="120" fill="#8d6e63" opacity="0.5"/>
  <rect x="488" y="265" width="12" height="120" fill="#8d6e63" opacity="0.5"/>
  <!-- Pizza 1 -->
  <circle cx="200" cy="200" r="80" fill="#f5e6c8" stroke="#e0c9a0" stroke-width="3"/>
  <circle cx="200" cy="200" r="68" fill="#e8412e" opacity="0.6"/>
  <circle cx="180" cy="185" r="12" fill="#c0392b" opacity="0.8"/>
  <circle cx="210" cy="175" r="10" fill="#c0392b" opacity="0.7"/>
  <circle cx="220" cy="210" r="11" fill="#c0392b" opacity="0.8"/>
  <circle cx="185" cy="220" r="10" fill="#c0392b" opacity="0.7"/>
  <circle cx="190" cy="200" r="15" fill="#ffeaa7" opacity="0.7"/>
  <circle cx="215" cy="195" r="12" fill="#ffeaa7" opacity="0.6"/>
  <!-- Pizza 2 -->
  <circle cx="420" cy="210" r="70" fill="#f5e6c8" stroke="#e0c9a0" stroke-width="3"/>
  <circle cx="420" cy="210" r="58" fill="#8B4513" opacity="0.4"/>
  <circle cx="405" cy="200" r="10" fill="#e74c3c" opacity="0.6"/>
  <circle cx="430" cy="195" r="8" fill="#e74c3c" opacity="0.5"/>
  <circle cx="415" cy="225" r="9" fill="#f1c40f" opacity="0.5"/>
  <circle cx="435" cy="215" r="12" fill="#fff8dc" opacity="0.6"/>
  <!-- Drinks -->
  <rect x="310" y="170" width="20" height="50" rx="4" fill="#e8f4f8" opacity="0.7" stroke="#b0d4e8" stroke-width="1.5"/>
  <rect x="310" y="185" width="20" height="30" rx="2" fill="#f39c12" opacity="0.3"/>
  <text x="300" y="370" text-anchor="middle" font-family="sans-serif" font-size="16" font-weight="700" fill="#999">MESA FARTA</text>
</svg>
